<?xml version="1.0" encoding="UTF-8"?>
<!-- Generated by Pixelmator Pro 3.7.1 -->
<svg width="1280" height="720" viewBox="0 0 1280 720" xmlns="http://www.w3.org/2000/svg">
    <path id="Rectangle" fill="#ffffff" fill-rule="evenodd" stroke="none" d="M -19 741 L 1298 741 L 1298 -19 L -19 -19 Z"/>
    <g id="Group">
        <g id="g1">
            <path id="Path" fill="none" stroke="none" d="M 546.344177 353.671173 C 533.932007 353.671173 524.757874 363.307922 524.757874 378.521149 C 524.757874 393.734344 533.263916 403.859375 546.164307 403.859375 C 558.576416 403.859375 567.262329 393.554474 567.262329 378.366974 C 567.262329 363.179443 558.781982 353.671173 546.344177 353.671173 Z"/>
            <path id="path1" fill="none" stroke="none" d="M 896.890625 352.360565 C 886.585754 352.360565 880.084167 359.170532 878.054016 366.494476 C 877.565735 368.241943 878.850647 370.015106 880.675171 370.015106 L 913.465881 370.015106 C 915.13623 370.015106 916.472534 368.498932 916.164124 366.879944 C 914.673645 358.887848 908.480469 352.360565 896.890625 352.360565 Z"/>
            <path id="path2" fill="none" stroke="none" d="M 639.499451 353.671173 C 627.08728 353.671173 617.913147 363.307922 617.913147 378.521149 C 617.913147 393.734344 626.419189 403.859375 639.31958 403.859375 C 651.731689 403.859375 660.391907 393.554474 660.391907 378.366974 C 660.391907 363.179443 651.937256 353.671173 639.499451 353.671173 Z"/>
            <path id="path3" fill="none" stroke="none" d="M 450.696198 330.748566 C 449.822479 328.384338 446.48172 328.384338 445.608002 330.748566 L 431.859589 367.650879 C 431.191406 369.424042 432.502014 371.325714 434.403687 371.325714 L 461.874847 371.325714 C 463.776459 371.325714 465.087097 369.424042 464.418915 367.650879 L 450.696198 330.748566 Z"/>
            <path id="path4" fill="#0d2e4e" stroke="none" d="M 460.589966 304.408112 C 460.178772 303.354492 459.176544 302.68634 458.045837 302.68634 L 439.054993 302.68634 C 437.924286 302.68634 436.922058 303.380188 436.510925 304.408112 L 393.518127 414.858124 C 392.82431 416.631287 394.134918 418.558655 396.062256 418.558655 L 410.941406 418.558655 C 412.072113 418.558655 413.100037 417.839081 413.485504 416.785461 L 422.968079 391.241638 C 423.353516 390.188019 424.381439 389.468506 425.512177 389.468506 L 470.766327 389.468506 C 471.897034 389.468506 472.899292 390.162354 473.310455 391.215973 L 482.947205 416.785461 C 483.358398 417.839081 484.360596 418.532928 485.491302 418.532928 L 501.038574 418.532928 C 502.940247 418.532928 504.27655 416.605591 503.582703 414.832428 L 460.589966 304.408112 Z M 461.874847 371.325714 L 434.403687 371.325714 C 432.502014 371.325714 431.191406 369.424042 431.859589 367.650879 L 445.608002 330.748566 C 446.48172 328.384338 449.822479 328.384338 450.696198 330.748566 L 464.444641 367.650879 C 465.087097 369.424042 463.776459 371.325714 461.874847 371.325714 Z"/>
            <path id="path5" fill="#0d2e4e" stroke="none" d="M 585.585022 302.943329 C 585.585022 301.45282 584.377258 300.219299 582.861084 300.219299 L 569.832153 300.219299 C 568.341675 300.219299 567.108154 301.427124 567.108154 302.943329 L 567.108154 340.719391 C 567.108154 343.032196 564.409851 344.188599 562.636719 342.69812 C 558.781982 339.460175 552.665894 336.838989 543.748718 336.838989 C 521.365723 336.838989 505.844147 355.624207 505.844147 378.521149 C 505.844147 402.548767 521.211548 420.511688 544.082764 420.511688 C 552.203308 420.511688 558.781982 417.633514 563.227783 413.52182 C 564.898132 411.97995 567.622131 412.930786 567.853394 415.1922 C 567.879089 415.50058 567.904846 415.834656 567.956177 416.11734 C 568.110352 417.505035 569.266785 418.532928 570.65448 418.532928 L 583.400696 418.532928 C 584.994019 418.532928 586.253174 417.170959 586.098999 415.603363 C 585.867737 412.879364 585.585022 408.690613 585.585022 403.987885 L 585.585022 302.943329 Z M 546.190002 403.833679 C 533.289612 403.833679 524.783569 393.708679 524.783569 378.495453 C 524.783569 363.307922 533.932007 353.645477 546.369873 353.645477 C 558.781982 353.645477 567.288086 363.128052 567.288086 378.315552 C 567.288086 393.503082 558.602173 403.833679 546.190002 403.833679 Z"/>
            <path id="path6" fill="#0d2e4e" stroke="none" d="M 678.740295 302.943329 C 678.740295 301.45282 677.532471 300.219299 676.016296 300.219299 L 662.987427 300.219299 C 661.496948 300.219299 660.263428 301.427124 660.263428 302.943329 L 660.263428 340.719391 C 660.263428 343.057892 657.565125 344.188599 655.791992 342.69812 C 651.937256 339.460175 645.821167 336.838989 636.903931 336.838989 C 614.520996 336.838989 598.99939 355.624207 598.99939 378.521149 C 598.99939 402.548767 614.36676 420.511688 637.237976 420.511688 C 645.358582 420.511688 651.937256 417.633514 656.383057 413.52182 C 658.053406 411.97995 660.777405 412.930786 661.008667 415.1922 C 661.034363 415.50058 661.060059 415.834656 661.11145 416.11734 C 661.265686 417.505035 662.422058 418.532928 663.809753 418.532928 L 676.555969 418.532928 C 678.149292 418.532928 679.408447 417.170959 679.254211 415.603363 C 679.022949 412.879364 678.740295 408.690613 678.740295 403.987885 L 678.740295 302.943329 Z M 639.345276 403.833679 C 626.444824 403.833679 617.938843 393.708679 617.938843 378.495453 C 617.938843 363.307922 627.08728 353.645477 639.525146 353.645477 C 651.937256 353.645477 660.443359 363.128052 660.443359 378.315552 C 660.443359 393.503082 651.757385 403.833679 639.345276 403.833679 Z"/>
            <path id="path7" fill="#0d2e4e" stroke="none" d="M 768.837463 400.235962 L 722.298401 400.235962 C 720.807922 400.235962 719.574402 399.028137 719.574402 397.511963 L 719.574402 372.225128 C 719.574402 370.73465 720.782227 369.501129 722.298401 369.501129 L 763.929138 369.501129 C 765.419617 369.501129 766.653137 368.293335 766.653137 366.777161 L 766.653137 354.390717 C 766.653137 352.900238 765.445374 351.666718 763.929138 351.666718 L 722.298401 351.666718 C 720.807922 351.666718 719.574402 350.458923 719.574402 348.942719 L 719.574402 323.655914 C 719.574402 322.165436 720.782227 320.931915 722.298401 320.931915 L 762.387329 320.931915 C 764.957092 320.931915 766.678894 318.336426 765.702332 315.972198 L 761.128113 304.870667 C 760.562744 303.534363 759.252197 302.634918 757.813049 302.634918 L 702.6651 302.634918 C 701.174622 302.634918 699.941162 303.842743 699.941162 305.358917 L 699.941162 415.808929 C 699.941162 417.299438 701.148987 418.532928 702.6651 418.532928 L 768.811829 418.532928 C 770.302307 418.532928 771.535767 417.325134 771.535767 415.808929 L 771.535767 402.934265 C 771.561462 401.469452 770.327942 400.235962 768.837463 400.235962 Z"/>
            <path id="path8" fill="#0d2e4e" stroke="none" d="M 854.026367 338.946198 L 839.969543 338.946198 C 838.813171 338.946198 837.810913 339.665771 837.425476 340.745087 L 820.002197 388.851746 C 819.128479 391.241638 815.78772 391.241638 814.888306 388.877441 L 797.053955 340.719391 C 796.668396 339.665771 795.640503 338.946198 794.509766 338.946198 L 779.527893 338.946198 C 777.600525 338.946198 776.289917 340.899261 777.009399 342.69812 L 807.153259 416.862579 C 807.564453 417.890472 808.566589 418.558655 809.671631 418.558655 L 824.936218 418.558655 C 826.066956 418.558655 827.069214 417.864807 827.454651 416.836884 L 856.5448 342.672424 C 857.264343 340.873596 855.92804 338.946198 854.026367 338.946198 Z"/>
            <path id="path9" fill="#0d2e4e" stroke="none" d="M 896.73645 336.504913 C 876.640625 336.504913 858.009644 353.182892 858.009644 378.341248 C 858.009644 405.298462 877.128906 420.999939 898.715271 420.999939 C 916.523926 420.999939 928.679138 411.209015 933.690186 398.616974 C 934.28125 397.126495 933.510254 395.456116 931.994141 394.967865 L 921.072449 391.524323 C 919.761902 391.113159 918.34845 391.755615 917.783142 393.014832 C 914.82782 399.747711 909.020081 404.656006 898.715271 404.656006 C 887.999146 404.656006 879.184692 397.486267 877.334473 387.078583 C 877.026123 385.433929 878.362366 383.892029 880.032715 383.892029 L 932.816406 383.892029 C 934.229797 383.892029 935.411987 382.787018 935.540466 381.373627 C 935.617554 380.371399 935.668945 379.137909 935.668945 377.852997 C 935.643188 352.694641 921.252319 336.504913 896.73645 336.504913 Z M 913.465881 370.015106 L 880.675171 370.015106 C 878.850647 370.015106 877.591492 368.267639 878.054016 366.494476 C 880.058472 359.170532 886.585754 352.360565 896.890625 352.360565 C 908.480469 352.360565 914.673645 358.887848 916.164124 366.854248 C 916.472534 368.498932 915.13623 370.015106 913.465881 370.015106 Z"/>
            <path id="path10" fill="#0d2e4e" stroke="none" d="M 990.534119 336.659088 C 983.904053 336.659088 976.939941 338.766327 971.646179 343.700348 C 969.873047 345.345001 966.994812 344.214325 966.994812 341.77301 L 966.994812 341.670197 C 966.994812 340.179749 965.787048 338.946198 964.270813 338.946198 L 951.241943 338.946198 C 949.751404 338.946198 948.517944 340.154022 948.517944 341.670197 L 948.517944 415.834656 C 948.517944 417.325134 949.725769 418.558655 951.241943 418.558655 L 964.759033 418.558655 C 966.249573 418.558655 967.483093 417.35083 967.483093 415.834656 L 967.483093 372.636292 C 967.483093 362.177216 973.213684 353.851074 983.981262 353.851074 C 995.904968 353.851074 1000.325012 361.688965 1000.325012 371.505585 L 1000.325012 415.860352 C 1000.325012 417.35083 1001.532837 418.58432 1003.049072 418.58432 L 1016.566284 418.58432 C 1018.056763 418.58432 1019.290222 417.376526 1019.290222 415.860352 L 1019.290222 368.216248 C 1019.315918 350.715912 1009.987549 336.659088 990.534119 336.659088 Z"/>
            <path id="path11" fill="#0d2e4e" stroke="none" d="M 1074.797974 402.47168 C 1073.692871 402.600189 1072.433716 402.702972 1071.251587 402.702972 C 1064.236084 402.702972 1061.126587 399.747711 1061.126587 392.732147 L 1061.126587 358.502411 C 1061.126587 357.011902 1062.334351 355.778412 1063.850586 355.778412 L 1074.926392 355.778412 C 1076.416992 355.778412 1077.650391 354.570587 1077.650391 353.054413 L 1077.650391 341.644501 C 1077.650391 340.154022 1076.442627 338.920532 1074.926392 338.920532 L 1063.850586 338.920532 C 1062.360107 338.920532 1061.126587 337.712708 1061.126587 336.196533 L 1061.126587 317.282806 C 1061.126587 315.792328 1059.918823 314.558807 1058.402588 314.558807 L 1046.684326 314.558807 C 1045.193848 314.558807 1043.960327 315.766602 1043.960327 317.282806 L 1043.960327 324.169861 L 1043.960327 326.482697 L 1043.960327 336.222229 C 1043.960327 337.712708 1042.752563 338.946198 1041.236328 338.946198 L 1030.083374 338.946198 C 1028.695679 339.074707 1027.590698 340.205414 1027.590698 341.618805 L 1027.590698 353.028717 C 1027.590698 354.519196 1028.798462 355.752686 1030.314697 355.752686 L 1039.591553 355.752686 C 1041.082153 355.752686 1042.315674 356.96051 1042.315674 358.476685 L 1042.315674 395.790222 C 1042.315674 410.669342 1051.464233 419.483765 1066.189087 419.483765 C 1070.763306 419.483765 1073.898438 418.8927 1075.800171 418.378754 C 1076.9823 418.044678 1077.778931 416.991058 1077.778931 415.757538 L 1077.778931 405.169983 C 1077.804565 403.576691 1076.416992 402.291779 1074.797974 402.47168 Z"/>
        </g>
        <g id="g2">
            <g id="g3">
                <g id="g4">
                    <path id="path12" fill="#115ef8" stroke="none" d="M 270.12323 351.75412 L 236.348328 417.181213 C 235.140533 419.527466 232.69664 421.00766 230.024048 420.999939 L 207.021759 420.999939 C 202.534897 421.017944 199.625885 416.330627 201.692001 412.403961 L 235.469452 346.979431 C 236.674698 344.628052 239.121155 343.150421 241.793732 343.158112 L 264.793457 343.158112 C 269.280304 343.145294 272.184204 347.827454 270.12323 351.75412 Z"/>
                    <path id="path13" fill="#115ef8" stroke="none" d="M 331.515747 372.258545 L 296.337738 304.338715 C 294.693085 301.141876 291.357483 299.132324 287.723785 299.140015 L 265.438477 299.140015 C 261.316498 299.147736 258.646484 303.436737 260.512177 307.065277 L 279.11496 343.168396 L 279.11496 343.168396 L 298.187988 380.165833 C 300.195038 384.056488 297.321991 388.664154 292.894226 388.664154 L 265.703156 388.664154 C 262.113159 388.664154 259.206696 391.532043 259.206696 395.065521 C 259.201569 395.982941 259.402008 396.887512 259.790039 397.71756 L 268.771515 417.196625 C 269.832825 419.486328 272.148224 420.953705 274.700043 420.956238 L 301.258911 420.956238 C 326.638275 420.956238 343.056732 394.531006 331.526031 372.250854 Z"/>
                </g>
            </g>
        </g>
    </g>
</svg>
