<svg xmlns="http://www.w3.org/2000/svg" viewBox="0 0 1280 720" width="1280" height="720">
  <defs>
    <linearGradient id="bg" x1="0.5" y1="0" x2="0.5" y2="1">
      <stop offset="0%" stop-color="#080e1a"/>
      <stop offset="50%" stop-color="#0c1a2e"/>
      <stop offset="100%" stop-color="#080e1a"/>
    </linearGradient>
    <radialGradient id="glow1" cx="50%" cy="50%" r="50%">
      <stop offset="0%" stop-color="#38bdf8" stop-opacity="0.06"/>
      <stop offset="100%" stop-color="#38bdf8" stop-opacity="0"/>
    </radialGradient>
    <radialGradient id="glow2" cx="50%" cy="50%" r="50%">
      <stop offset="0%" stop-color="#818cf8" stop-opacity="0.04"/>
      <stop offset="100%" stop-color="#818cf8" stop-opacity="0"/>
    </radialGradient>
  </defs>

  <rect width="1280" height="720" fill="url(#bg)"/>
  <ellipse cx="480" cy="340" rx="400" ry="280" fill="url(#glow1)"/>
  <ellipse cx="850" cy="380" rx="350" ry="250" fill="url(#glow2)"/>

  <!-- === LAYER 1: Tiny dust sparkles + tiny empty bubbles === -->
  <g fill="#38bdf8" opacity="0.08">
    <path transform="translate(45, 95)" d="M0 -5 C0.5 -1, 1 -0.5, 5 0 C1 0.5, 0.5 1, 0 5 C-0.5 1, -1 0.5, -5 0 C-1 -0.5, -0.5 -1, 0 -5Z"/>
    <path transform="translate(460, 80)" d="M0 -4 C0.4 -1, 1 -0.4, 4 0 C1 0.4, 0.4 1, 0 4 C-0.4 1, -1 0.4, -4 0 C-1 -0.4, -0.4 -1, 0 -4Z"/>
    <path transform="translate(850, 60)" d="M0 -5 C0.5 -1, 1 -0.5, 5 0 C1 0.5, 0.5 1, 0 5 C-0.5 1, -1 0.5, -5 0 C-1 -0.5, -0.5 -1, 0 -5Z"/>
    <path transform="translate(350, 260)" d="M0 -4 C0.4 -1, 1 -0.4, 4 0 C1 0.4, 0.4 1, 0 4 C-0.4 1, -1 0.4, -4 0 C-1 -0.4, -0.4 -1, 0 -4Z"/>
    <path transform="translate(760, 580)" d="M0 -5 C0.5 -1, 1 -0.5, 5 0 C1 0.5, 0.5 1, 0 5 C-0.5 1, -1 0.5, -5 0 C-1 -0.5, -0.5 -1, 0 -5Z"/>
    <path transform="translate(1200, 680)" d="M0 -4 C0.4 -1, 1 -0.4, 4 0 C1 0.4, 0.4 1, 0 4 C-0.4 1, -1 0.4, -4 0 C-1 -0.4, -0.4 -1, 0 -4Z"/>
    <path transform="translate(90, 290)" d="M0 -5 C0.5 -1, 1 -0.5, 5 0 C1 0.5, 0.5 1, 0 5 C-0.5 1, -1 0.5, -5 0 C-1 -0.5, -0.5 -1, 0 -5Z"/>
    <path transform="translate(1060, 280)" d="M0 -4 C0.4 -1, 1 -0.4, 4 0 C1 0.4, 0.4 1, 0 4 C-0.4 1, -1 0.4, -4 0 C-1 -0.4, -0.4 -1, 0 -4Z"/>
    <!-- 6-point -->
    <path transform="translate(180, 50)" d="M0 -6 L1.5 -2 L5.2 -3 L3 0 L5.2 3 L1.5 2 L0 6 L-1.5 2 L-5.2 3 L-3 0 L-5.2 -3 L-1.5 -2Z"/>
    <path transform="translate(720, 110)" d="M0 -5 L1.2 -1.7 L4.3 -2.5 L2.5 0 L4.3 2.5 L1.2 1.7 L0 5 L-1.2 1.7 L-4.3 2.5 L-2.5 0 L-4.3 -2.5 L-1.2 -1.7Z"/>
    <path transform="translate(200, 510)" d="M0 -6 L1.5 -2 L5.2 -3 L3 0 L5.2 3 L1.5 2 L0 6 L-1.5 2 L-5.2 3 L-3 0 L-5.2 -3 L-1.5 -2Z"/>
    <path transform="translate(880, 660)" d="M0 -5 L1.2 -1.7 L4.3 -2.5 L2.5 0 L4.3 2.5 L1.2 1.7 L0 5 L-1.2 1.7 L-4.3 2.5 L-2.5 0 L-4.3 -2.5 L-1.2 -1.7Z"/>
    <path transform="translate(530, 550)" d="M0 -6 L1.5 -2 L5.2 -3 L3 0 L5.2 3 L1.5 2 L0 6 L-1.5 2 L-5.2 3 L-3 0 L-5.2 -3 L-1.5 -2Z"/>
    <!-- Elongated -->
    <path transform="translate(310, 130)" d="M0 -8 C0.3 -1, 1 -0.3, 3 0 C1 0.3, 0.3 1, 0 8 C-0.3 1, -1 0.3, -3 0 C-1 -0.3, -0.3 -1, 0 -8Z"/>
    <path transform="translate(590, 45)" d="M0 -7 C0.3 -1, 1 -0.3, 3 0 C1 0.3, 0.3 1, 0 7 C-0.3 1, -1 0.3, -3 0 C-1 -0.3, -0.3 -1, 0 -7Z"/>
    <path transform="translate(1000, 90)" d="M0 -8 C0.3 -1, 1 -0.3, 3 0 C1 0.3, 0.3 1, 0 8 C-0.3 1, -1 0.3, -3 0 C-1 -0.3, -0.3 -1, 0 -8Z"/>
    <path transform="translate(1140, 55)" d="M0 -7 C0.3 -1, 1 -0.3, 3 0 C1 0.3, 0.3 1, 0 7 C-0.3 1, -1 0.3, -3 0 C-1 -0.3, -0.3 -1, 0 -7Z"/>
    <path transform="translate(680, 300)" d="M0 -8 C0.3 -1, 1 -0.3, 3 0 C1 0.3, 0.3 1, 0 8 C-0.3 1, -1 0.3, -3 0 C-1 -0.3, -0.3 -1, 0 -8Z"/>
    <path transform="translate(950, 530)" d="M0 -7 C0.3 -1, 1 -0.3, 3 0 C1 0.3, 0.3 1, 0 7 C-0.3 1, -1 0.3, -3 0 C-1 -0.3, -0.3 -1, 0 -7Z"/>
    <path transform="translate(110, 650)" d="M0 -8 C0.3 -1, 1 -0.3, 3 0 C1 0.3, 0.3 1, 0 8 C-0.3 1, -1 0.3, -3 0 C-1 -0.3, -0.3 -1, 0 -8Z"/>
    <path transform="translate(440, 670)" d="M0 -7 C0.3 -1, 1 -0.3, 3 0 C1 0.3, 0.3 1, 0 7 C-0.3 1, -1 0.3, -3 0 C-1 -0.3, -0.3 -1, 0 -7Z"/>
    <path transform="translate(1230, 120)" d="M0 -8 C0.3 -1, 1 -0.3, 3 0 C1 0.3, 0.3 1, 0 8 C-0.3 1, -1 0.3, -3 0 C-1 -0.3, -0.3 -1, 0 -8Z"/>
    <path transform="translate(1180, 560)" d="M0 -7 C0.3 -1, 1 -0.3, 3 0 C1 0.3, 0.3 1, 0 7 C-0.3 1, -1 0.3, -3 0 C-1 -0.3, -0.3 -1, 0 -7Z"/>
  </g>

  <!-- Layer 1 tiny empty bubbles -->
  <g opacity="0.08">
    <path transform="translate(155, 360)" d="M6 0 h50 a6 6 0 0 1 6 6 v14 a6 6 0 0 1 -6 6 h-38 l-6 7 l-1 -7 h-5 a6 6 0 0 1 -6 -6 v-14 a6 6 0 0 1 6 -6z" fill="#38bdf8" fill-opacity="0.3" stroke="#38bdf8" stroke-width="0.4" stroke-opacity="0.5"/>
    <path transform="translate(920, 510)" d="M6 0 h45 a6 6 0 0 1 6 6 v14 a6 6 0 0 1 -6 6 h-33 l-6 7 l-1 -7 h-5 a6 6 0 0 1 -6 -6 v-14 a6 6 0 0 1 6 -6z" fill="#818cf8" fill-opacity="0.3" stroke="#818cf8" stroke-width="0.4" stroke-opacity="0.5"/>
    <path transform="translate(640, 640)" d="M6 0 h55 a6 6 0 0 1 6 6 v14 a6 6 0 0 1 -6 6 h-43 l-6 7 l-1 -7 h-5 a6 6 0 0 1 -6 -6 v-14 a6 6 0 0 1 6 -6z" fill="#38bdf8" fill-opacity="0.3" stroke="#38bdf8" stroke-width="0.4" stroke-opacity="0.5"/>
    <path transform="translate(1070, 130)" d="M6 0 h48 a6 6 0 0 1 6 6 v14 a6 6 0 0 1 -6 6 h-36 l-6 7 l-1 -7 h-5 a6 6 0 0 1 -6 -6 v-14 a6 6 0 0 1 6 -6z" fill="#e0f2fe" fill-opacity="0.25" stroke="#e0f2fe" stroke-width="0.4" stroke-opacity="0.4"/>
    <path transform="translate(330, 600)" d="M6 0 h42 a6 6 0 0 1 6 6 v14 a6 6 0 0 1 -6 6 h-30 l-6 7 l-1 -7 h-5 a6 6 0 0 1 -6 -6 v-14 a6 6 0 0 1 6 -6z" fill="#818cf8" fill-opacity="0.3" stroke="#818cf8" stroke-width="0.4" stroke-opacity="0.5"/>
  </g>

  <!-- === LAYER 2: Small sparkles + small empty bubbles === -->
  <g fill="#818cf8" opacity="0.12">
    <path transform="translate(120, 170)" d="M0 -10 C1 -2, 2 -1, 10 0 C2 1, 1 2, 0 10 C-1 2, -2 1, -10 0 C-2 -1, -1 -2, 0 -10Z"/>
    <path transform="translate(960, 170)" d="M0 -10 C1 -2, 2 -1, 10 0 C2 1, 1 2, 0 10 C-1 2, -2 1, -10 0 C-2 -1, -1 -2, 0 -10Z"/>
    <path transform="translate(1100, 530)" d="M0 -10 C1 -2, 2 -1, 10 0 C2 1, 1 2, 0 10 C-1 2, -2 1, -10 0 C-2 -1, -1 -2, 0 -10Z"/>
    <path transform="translate(250, 630)" d="M0 -8 C1 -2, 2 -1, 8 0 C2 1, 1 2, 0 8 C-1 2, -2 1, -8 0 C-2 -1, -1 -2, 0 -8Z"/>
    <path transform="translate(550, 150)" d="M0 -12 L3 -4 L10.4 -6 L6 0 L10.4 6 L3 4 L0 12 L-3 4 L-10.4 6 L-6 0 L-10.4 -6 L-3 -4Z"/>
    <path transform="translate(340, 390)" d="M0 -10 L2.5 -3.3 L8.7 -5 L5 0 L8.7 5 L2.5 3.3 L0 10 L-2.5 3.3 L-8.7 5 L-5 0 L-8.7 -5 L-2.5 -3.3Z"/>
    <path transform="translate(1050, 640)" d="M0 -11 L2.8 -3.7 L9.5 -5.5 L5.5 0 L9.5 5.5 L2.8 3.7 L0 11 L-2.8 3.7 L-9.5 5.5 L-5.5 0 L-9.5 -5.5 L-2.8 -3.7Z"/>
    <path transform="translate(730, 480)" d="M0 -16 C0.5 -2, 2 -0.5, 5 0 C2 0.5, 0.5 2, 0 16 C-0.5 2, -2 0.5, -5 0 C-2 -0.5, -0.5 -2, 0 -16Z"/>
    <path transform="translate(80, 480)" d="M0 -15 C0.5 -2, 2 -0.5, 5 0 C2 0.5, 0.5 2, 0 15 C-0.5 2, -2 0.5, -5 0 C-2 -0.5, -0.5 -2, 0 -15Z"/>
    <path transform="translate(1180, 350)" d="M0 -14 C0.5 -2, 2 -0.5, 5 0 C2 0.5, 0.5 2, 0 14 C-0.5 2, -2 0.5, -5 0 C-2 -0.5, -0.5 -2, 0 -14Z"/>
    <path transform="translate(480, 520)" d="M0 -13 C0.5 -2, 2 -0.5, 4 0 C2 0.5, 0.5 2, 0 13 C-0.5 2, -2 0.5, -4 0 C-2 -0.5, -0.5 -2, 0 -13Z"/>
    <path transform="translate(650, 630)" d="M0 -14 C0.5 -2, 2 -0.5, 5 0 C2 0.5, 0.5 2, 0 14 C-0.5 2, -2 0.5, -5 0 C-2 -0.5, -0.5 -2, 0 -14Z"/>
  </g>

  <!-- Layer 2 small empty bubbles -->
  <g opacity="0.14">
    <path transform="translate(700, 160)" d="M7 0 h65 a7 7 0 0 1 7 7 v18 a7 7 0 0 1 -7 7 h-51 l-7 8 l-1.5 -8 h-5.5 a7 7 0 0 1 -7 -7 v-18 a7 7 0 0 1 7 -7z" fill="#38bdf8" fill-opacity="0.2" stroke="#38bdf8" stroke-width="0.5" stroke-opacity="0.4"/>
    <text x="714" y="180" font-family="'Courier New', Courier, monospace" font-size="14" fill="#38bdf8" opacity="0.5">&gt;_</text>
    <path transform="translate(50, 550)" d="M7 0 h60 a7 7 0 0 1 7 7 v18 a7 7 0 0 1 -7 7 h-46 l-7 8 l-1.5 -8 h-5.5 a7 7 0 0 1 -7 -7 v-18 a7 7 0 0 1 7 -7z" fill="#818cf8" fill-opacity="0.2" stroke="#818cf8" stroke-width="0.5" stroke-opacity="0.4"/>
    <text x="64" y="570" font-family="'Courier New', Courier, monospace" font-size="14" fill="#818cf8" opacity="0.5">&gt;_</text>
    <path transform="translate(1150, 310)" d="M7 0 h70 a7 7 0 0 1 7 7 v18 a7 7 0 0 1 -7 7 h-56 l-7 8 l-1.5 -8 h-5.5 a7 7 0 0 1 -7 -7 v-18 a7 7 0 0 1 7 -7z" fill="#e0f2fe" fill-opacity="0.15" stroke="#e0f2fe" stroke-width="0.5" stroke-opacity="0.35"/>
    <text x="1164" y="330" font-family="'Courier New', Courier, monospace" font-size="14" fill="#e0f2fe" opacity="0.4">&gt;_</text>
    <path transform="translate(380, 110)" d="M7 0 h55 a7 7 0 0 1 7 7 v18 a7 7 0 0 1 -7 7 h-41 l-7 8 l-1.5 -8 h-5.5 a7 7 0 0 1 -7 -7 v-18 a7 7 0 0 1 7 -7z" fill="#38bdf8" fill-opacity="0.2" stroke="#38bdf8" stroke-width="0.5" stroke-opacity="0.4"/>
    <text x="394" y="130" font-family="'Courier New', Courier, monospace" font-size="14" fill="#38bdf8" opacity="0.5">&gt;_</text>
    <path transform="translate(850, 590)" d="M7 0 h58 a7 7 0 0 1 7 7 v18 a7 7 0 0 1 -7 7 h-44 l-7 8 l-1.5 -8 h-5.5 a7 7 0 0 1 -7 -7 v-18 a7 7 0 0 1 7 -7z" fill="#818cf8" fill-opacity="0.2" stroke="#818cf8" stroke-width="0.5" stroke-opacity="0.4"/>
    <text x="864" y="610" font-family="'Courier New', Courier, monospace" font-size="14" fill="#818cf8" opacity="0.5">&gt;_</text>
    <path transform="translate(250, 440)" d="M7 0 h62 a7 7 0 0 1 7 7 v18 a7 7 0 0 1 -7 7 h-48 l-7 8 l-1.5 -8 h-5.5 a7 7 0 0 1 -7 -7 v-18 a7 7 0 0 1 7 -7z" fill="#e0f2fe" fill-opacity="0.15" stroke="#e0f2fe" stroke-width="0.5" stroke-opacity="0.35"/>
    <text x="264" y="460" font-family="'Courier New', Courier, monospace" font-size="14" fill="#e0f2fe" opacity="0.4">&gt;_</text>
  </g>

  <!-- === LAYER 3: Medium sparkles === -->
  <g fill="#38bdf8" opacity="0.2">
    <path transform="translate(195, 240)" d="M0 -18 C2 -4, 4 -2, 18 0 C4 2, 2 4, 0 18 C-2 4, -4 2, -18 0 C-4 -2, -2 -4, 0 -18Z"/>
    <path transform="translate(1000, 460)" d="M0 -16 C2 -3, 3 -2, 16 0 C3 2, 2 3, 0 16 C-2 3, -3 2, -16 0 C-3 -2, -2 -3, 0 -16Z"/>
    <path transform="translate(820, 200)" d="M0 -20 L5 -6.7 L17 -10 L10 0 L17 10 L5 6.7 L0 20 L-5 6.7 L-17 10 L-10 0 L-17 -10 L-5 -6.7Z"/>
    <path transform="translate(380, 560)" d="M0 -18 L4.5 -6 L15.6 -9 L9 0 L15.6 9 L4.5 6 L0 18 L-4.5 6 L-15.6 9 L-9 0 L-15.6 -9 L-4.5 -6Z"/>
    <path transform="translate(500, 440)" d="M0 -26 C1 -4, 4 -1, 8 0 C4 1, 1 4, 0 26 C-1 4, -4 1, -8 0 C-4 -1, -1 -4, 0 -26Z"/>
    <path transform="translate(1130, 270)" d="M0 -24 C1 -3, 3 -1, 7 0 C3 1, 1 3, 0 24 C-1 3, -3 1, -7 0 C-3 -1, -1 -3, 0 -24Z"/>
    <path transform="translate(150, 400)" d="M0 -22 C1 -3, 3 -1, 7 0 C3 1, 1 3, 0 22 C-1 3, -3 1, -7 0 C-3 -1, -1 -3, 0 -22Z"/>
    <path transform="translate(700, 560)" d="M0 -24 C1 -3, 3 -1, 7 0 C3 1, 1 3, 0 24 C-1 3, -3 1, -7 0 C-3 -1, -1 -3, 0 -24Z"/>
  </g>

  <!-- === LAYER 4: Large sparkles (now fainter, demoted from hero) === -->
  <g opacity="0.2">
    <path transform="translate(280, 310)" fill="#38bdf8" d="M0 -35 C3 -7, 7 -3, 35 0 C7 3, 3 7, 0 35 C-3 7, -7 3, -35 0 C-7 -3, -3 -7, 0 -35Z"/>
    <path transform="translate(920, 330)" fill="#818cf8" d="M0 -42 L10.5 -14 L36 -21 L21 0 L36 21 L10.5 14 L0 42 L-10.5 14 L-36 21 L-21 0 L-36 -21 L-10.5 -14Z"/>
    <path transform="translate(1080, 200)" fill="#38bdf8" d="M0 -45 C1.5 -6, 6 -1.5, 12 0 C6 1.5, 1.5 6, 0 45 C-1.5 6, -6 1.5, -12 0 C-6 -1.5, -1.5 -6, 0 -45Z"/>
    <path transform="translate(170, 550)" fill="#818cf8" d="M0 -30 C3 -6, 6 -3, 30 0 C6 3, 3 6, 0 30 C-3 6, -6 3, -30 0 C-6 -3, -3 -6, 0 -30Z"/>
    <!-- Former hero sparkles demoted to this layer -->
    <path transform="translate(420, 250)" fill="#e0f2fe" d="M0 -48 L12 -16 L42 -24 L24 0 L42 24 L12 16 L0 48 L-12 16 L-42 24 L-24 0 L-42 -24 L-12 -16Z"/>
    <path transform="translate(780, 420)" fill="#e0f2fe" d="M0 -70 C2 -8, 8 -2, 18 0 C8 2, 2 8, 0 70 C-2 8, -8 2, -18 0 C-8 -2, -2 -8, 0 -70Z"/>
  </g>

  <!-- Layer 4 medium empty bubbles -->
  <g opacity="0.25">
    <path transform="translate(30, 210)" d="M8 0 h80 a8 8 0 0 1 8 8 v20 a8 8 0 0 1 -8 8 h-64 l-8 10 l-2 -10 h-6 a8 8 0 0 1 -8 -8 v-20 a8 8 0 0 1 8 -8z" fill="#38bdf8" fill-opacity="0.06" stroke="#38bdf8" stroke-width="0.5" stroke-opacity="0.2"/>
    <text x="44" y="230" font-family="'Courier New', Courier, monospace" font-size="16" fill="#38bdf8" opacity="0.5">&gt;_</text>
    <path transform="translate(1100, 450)" d="M8 0 h85 a8 8 0 0 1 8 8 v20 a8 8 0 0 1 -8 8 h-69 l-8 10 l-2 -10 h-6 a8 8 0 0 1 -8 -8 v-20 a8 8 0 0 1 8 -8z" fill="#818cf8" fill-opacity="0.06" stroke="#818cf8" stroke-width="0.5" stroke-opacity="0.2"/>
    <text x="1114" y="470" font-family="'Courier New', Courier, monospace" font-size="16" fill="#818cf8" opacity="0.5">&gt;_</text>
    <path transform="translate(580, 580)" d="M8 0 h75 a8 8 0 0 1 8 8 v20 a8 8 0 0 1 -8 8 h-59 l-8 10 l-2 -10 h-6 a8 8 0 0 1 -8 -8 v-20 a8 8 0 0 1 8 -8z" fill="#e0f2fe" fill-opacity="0.05" stroke="#e0f2fe" stroke-width="0.5" stroke-opacity="0.18"/>
    <text x="594" y="600" font-family="'Courier New', Courier, monospace" font-size="16" fill="#e0f2fe" opacity="0.4">&gt;_</text>
    <path transform="translate(960, 150)" d="M8 0 h78 a8 8 0 0 1 8 8 v20 a8 8 0 0 1 -8 8 h-62 l-8 10 l-2 -10 h-6 a8 8 0 0 1 -8 -8 v-20 a8 8 0 0 1 8 -8z" fill="#38bdf8" fill-opacity="0.06" stroke="#38bdf8" stroke-width="0.5" stroke-opacity="0.2"/>
    <text x="974" y="170" font-family="'Courier New', Courier, monospace" font-size="16" fill="#38bdf8" opacity="0.5">&gt;_</text>
  </g>

  <!-- === LAYER 5: Single hero center sparkle === -->
  <g transform="translate(600, 360)" fill="#e0f2fe" opacity="0.65">
    <path d="M0 -65 C5 -14, 14 -5, 65 0 C14 5, 5 14, 0 65 C-5 14, -14 5, -65 0 C-14 -5, -5 -14, 0 -65Z"/>
  </g>
  <g transform="translate(600, 360)" fill="#38bdf8" opacity="0.2">
    <path d="M0 -35 C3 -7, 7 -3, 35 0 C7 3, 3 7, 0 35 C-3 7, -7 3, -35 0 C-7 -3, -3 -7, 0 -35Z"/>
  </g>

  <!-- === PROMINENT CHAT BUBBLES with text === -->

  <g transform="translate(60, 290)" opacity="0.7">
    <path d="M14 0 h270 a14 14 0 0 1 14 14 v30 a14 14 0 0 1 -14 14 h-248 l-14 16 l-2 -16 h-6 a14 14 0 0 1 -14 -14 v-30 a14 14 0 0 1 14 -14z" fill="#38bdf8" fill-opacity="0.08" stroke="#38bdf8" stroke-width="0.8" stroke-opacity="0.35"/>
    <text x="22" y="35" font-family="'Courier New', Courier, monospace" font-size="18" fill="#38bdf8" opacity="0.8">&gt; Please change the...</text>
  </g>

  <g transform="translate(750, 370)" opacity="0.65">
    <path d="M14 0 h290 a14 14 0 0 1 14 14 v30 a14 14 0 0 1 -14 14 h-268 l-14 16 l-2 -16 h-6 a14 14 0 0 1 -14 -14 v-30 a14 14 0 0 1 14 -14z" fill="#818cf8" fill-opacity="0.08" stroke="#818cf8" stroke-width="0.8" stroke-opacity="0.35"/>
    <text x="22" y="35" font-family="'Courier New', Courier, monospace" font-size="18" fill="#818cf8" opacity="0.8">&gt; Create a new class...</text>
  </g>

  <g transform="translate(400, 170)" opacity="0.55">
    <path d="M12 0 h240 a12 12 0 0 1 12 12 v26 a12 12 0 0 1 -12 12 h-220 l-12 14 l-2 -14 h-6 a12 12 0 0 1 -12 -12 v-26 a12 12 0 0 1 12 -12z" fill="#e0f2fe" fill-opacity="0.06" stroke="#e0f2fe" stroke-width="0.6" stroke-opacity="0.25"/>
    <text x="20" y="30" font-family="'Courier New', Courier, monospace" font-size="16" fill="#e0f2fe" opacity="0.65">&gt; Explain how this...</text>
  </g>

  <g transform="translate(480, 490)" opacity="0.5">
    <path d="M12 0 h260 a12 12 0 0 1 12 12 v26 a12 12 0 0 1 -12 12 h-240 l-12 14 l-2 -14 h-6 a12 12 0 0 1 -12 -12 v-26 a12 12 0 0 1 12 -12z" fill="#38bdf8" fill-opacity="0.06" stroke="#38bdf8" stroke-width="0.6" stroke-opacity="0.22"/>
    <text x="20" y="30" font-family="'Courier New', Courier, monospace" font-size="16" fill="#38bdf8" opacity="0.6">&gt; Refactor this to use...</text>
  </g>
</svg>
