<svg xmlns="http://www.w3.org/2000/svg" viewBox="0 0 1280 720" width="1280" height="720">
  <defs>
    <linearGradient id="bg" x1="0.5" y1="0" x2="0.5" y2="1">
      <stop offset="0%" stop-color="#141412"/>
      <stop offset="50%" stop-color="#1c1c18"/>
      <stop offset="100%" stop-color="#141412"/>
    </linearGradient>
  </defs>

  <rect width="1280" height="720" fill="url(#bg)"/>

  <!-- Blueprint/grid pattern -->
  <g stroke="#3a3a30" stroke-width="0.3" opacity="0.25">
    <!-- Vertical lines -->
    <line x1="80" y1="0" x2="80" y2="720"/>
    <line x1="160" y1="0" x2="160" y2="720"/>
    <line x1="240" y1="0" x2="240" y2="720"/>
    <line x1="320" y1="0" x2="320" y2="720"/>
    <line x1="400" y1="0" x2="400" y2="720"/>
    <line x1="480" y1="0" x2="480" y2="720"/>
    <line x1="560" y1="0" x2="560" y2="720"/>
    <line x1="640" y1="0" x2="640" y2="720"/>
    <line x1="720" y1="0" x2="720" y2="720"/>
    <line x1="800" y1="0" x2="800" y2="720"/>
    <line x1="880" y1="0" x2="880" y2="720"/>
    <line x1="960" y1="0" x2="960" y2="720"/>
    <line x1="1040" y1="0" x2="1040" y2="720"/>
    <line x1="1120" y1="0" x2="1120" y2="720"/>
    <line x1="1200" y1="0" x2="1200" y2="720"/>
    <!-- Horizontal lines -->
    <line x1="0" y1="80" x2="1280" y2="80"/>
    <line x1="0" y1="160" x2="1280" y2="160"/>
    <line x1="0" y1="240" x2="1280" y2="240"/>
    <line x1="0" y1="320" x2="1280" y2="320"/>
    <line x1="0" y1="400" x2="1280" y2="400"/>
    <line x1="0" y1="480" x2="1280" y2="480"/>
    <line x1="0" y1="560" x2="1280" y2="560"/>
    <line x1="0" y1="640" x2="1280" y2="640"/>
  </g>

  <!-- Finer sub-grid -->
  <g stroke="#3a3a30" stroke-width="0.15" opacity="0.1">
    <line x1="40" y1="0" x2="40" y2="720"/>
    <line x1="120" y1="0" x2="120" y2="720"/>
    <line x1="200" y1="0" x2="200" y2="720"/>
    <line x1="280" y1="0" x2="280" y2="720"/>
    <line x1="360" y1="0" x2="360" y2="720"/>
    <line x1="440" y1="0" x2="440" y2="720"/>
    <line x1="520" y1="0" x2="520" y2="720"/>
    <line x1="600" y1="0" x2="600" y2="720"/>
    <line x1="680" y1="0" x2="680" y2="720"/>
    <line x1="760" y1="0" x2="760" y2="720"/>
    <line x1="840" y1="0" x2="840" y2="720"/>
    <line x1="920" y1="0" x2="920" y2="720"/>
    <line x1="1000" y1="0" x2="1000" y2="720"/>
    <line x1="1080" y1="0" x2="1080" y2="720"/>
    <line x1="1160" y1="0" x2="1160" y2="720"/>
    <line x1="1240" y1="0" x2="1240" y2="720"/>
    <line x1="0" y1="40" x2="1280" y2="40"/>
    <line x1="0" y1="120" x2="1280" y2="120"/>
    <line x1="0" y1="200" x2="1280" y2="200"/>
    <line x1="0" y1="280" x2="1280" y2="280"/>
    <line x1="0" y1="360" x2="1280" y2="360"/>
    <line x1="0" y1="440" x2="1280" y2="440"/>
    <line x1="0" y1="520" x2="1280" y2="520"/>
    <line x1="0" y1="600" x2="1280" y2="600"/>
    <line x1="0" y1="680" x2="1280" y2="680"/>
  </g>

  <!-- Scattered faint buzzwords in the background -->
  <g font-family="'Helvetica Neue', Helvetica, Arial, sans-serif" font-size="16" font-weight="400" fill="#3a3a30" opacity="0.2">
    <text x="60" y="195">Kubernetes</text>
    <text x="1050" y="210">blockchain</text>
    <text x="280" y="540">microservices</text>
    <text x="920" y="530">event-driven</text>
    <text x="100" y="390">serverless</text>
    <text x="1100" y="380">GraphQL</text>
    <text x="480" y="170">NoSQL</text>
    <text x="780" y="190">edge computing</text>
    <text x="180" y="300">web3</text>
    <text x="1020" y="310">service mesh</text>
    <text x="400" y="560">containers</text>
    <text x="700" y="550">event sourcing</text>
    <text x="60" y="470">gRPC</text>
    <text x="1150" y="480">CQRS</text>
    <text x="550" y="260">lambda</text>
    <text x="850" y="440">terraform</text>
    <text x="300" y="440">headless</text>
    <text x="640" y="460">distributed</text>
    <text x="150" y="600">cloud-native</text>
    <text x="940" y="610">reactive</text>
    <text x="500" y="640">isomorphic</text>
    <text x="750" y="295">polyglot</text>
    <text x="1080" y="560">immutable</text>
    <text x="350" y="340">composable</text>
    <text x="620" y="350">decoupled</text>
  </g>

  <!-- "BORING." hero text -->
  <!-- Subtle warm glow behind text -->
  <text x="640" y="405" font-family="'Courier New', Courier, monospace" font-size="190" font-weight="700" fill="none" stroke="#8a8060" stroke-width="12" text-anchor="middle" opacity="0.03">BORING.</text>
  <text x="640" y="405" font-family="'Courier New', Courier, monospace" font-size="190" font-weight="700" fill="none" stroke="#8a8060" stroke-width="8" text-anchor="middle" opacity="0.04">BORING.</text>
  <text x="640" y="405" font-family="'Courier New', Courier, monospace" font-size="190" font-weight="700" fill="none" stroke="#8a8060" stroke-width="5" text-anchor="middle" opacity="0.06">BORING.</text>

  <!-- Main text -->
  <text x="640" y="405" font-family="'Courier New', Courier, monospace" font-size="190" font-weight="700" fill="#a09870" text-anchor="middle" opacity="0.9">BORING.</text>

  <!-- Understated tagline below -->
  <text x="640" y="450" font-family="'Helvetica Neue', Helvetica, Arial, sans-serif" font-size="18" font-weight="300" fill="#6a6a58" text-anchor="middle" letter-spacing="8" opacity="0.6">AND THAT'S A GOOD THING</text>
</svg>
