<?xml version="1.0" encoding="UTF-8"?>
<svg xmlns="http://www.w3.org/2000/svg" width="1280" height="720" viewBox="0 0 1280 720">
  <defs>
    <radialGradient id="glow" cx="50%" cy="50%" r="55%">
      <stop offset="0%" stop-color="#a78bfa" stop-opacity="0.3"/>
      <stop offset="50%" stop-color="#8b5cf6" stop-opacity="0.1"/>
      <stop offset="100%" stop-color="#8b5cf6" stop-opacity="0"/>
    </radialGradient>
    <radialGradient id="glow2" cx="30%" cy="35%" r="40%">
      <stop offset="0%" stop-color="#c4b5fd" stop-opacity="0.12"/>
      <stop offset="100%" stop-color="#8b5cf6" stop-opacity="0"/>
    </radialGradient>
    <radialGradient id="glow3" cx="75%" cy="65%" r="35%">
      <stop offset="0%" stop-color="#7c3aed" stop-opacity="0.2"/>
      <stop offset="100%" stop-color="#8b5cf6" stop-opacity="0"/>
    </radialGradient>
    <linearGradient id="bg" x1="0" y1="0" x2="1" y2="1">
      <stop offset="0%" stop-color="#7c3aed"/>
      <stop offset="30%" stop-color="#8b5cf6"/>
      <stop offset="70%" stop-color="#8b5cf6"/>
      <stop offset="100%" stop-color="#6d28d9"/>
    </linearGradient>
  </defs>

  <!-- Background with subtle gradient -->
  <rect width="1280" height="720" fill="url(#bg)"/>

  <!-- Soft light blobs for depth -->
  <rect width="1280" height="720" fill="url(#glow)"/>
  <rect width="1280" height="720" fill="url(#glow2)"/>
  <rect width="1280" height="720" fill="url(#glow3)"/>

  <!-- Subtle scattered dots/particles -->
  <g fill="#ffffff" opacity="0.06">
    <circle cx="120" cy="180" r="80"/>
    <circle cx="1100" cy="520" r="100"/>
    <circle cx="350" cy="580" r="60"/>
    <circle cx="950" cy="140" r="70"/>
    <circle cx="640" cy="100" r="50"/>
    <circle cx="200" cy="420" r="45"/>
    <circle cx="1050" cy="300" r="55"/>
  </g>

  <!-- Faint grid pattern -->
  <g stroke="#ffffff" stroke-width="0.3" opacity="0.04">
    <line x1="0" y1="180" x2="1280" y2="180"/>
    <line x1="0" y1="360" x2="1280" y2="360"/>
    <line x1="0" y1="540" x2="1280" y2="540"/>
    <line x1="320" y1="0" x2="320" y2="720"/>
    <line x1="640" y1="0" x2="640" y2="720"/>
    <line x1="960" y1="0" x2="960" y2="720"/>
  </g>

  <!-- Logo and text - scaled to fit 427px safe zone, centered -->
  <g transform="translate(640, 165) scale(1.2) translate(-500.5, -339)" fill="#ffffff">
    <!-- Logo mark -->
    <path d="M584.34,386.98c-17.78-33.4-54.31-52.17-93.06-47.81-23.13,2.6-44.4,13.69-59.93,31.21-15.57,17.57-23.93,40.04-23.58,63.27.39,25.54,11.02,49.72,29.33,67.08l-6.53,26.15c-1.48,5.94,1.8,12.04,7.48,13.89,1.18.38,2.4.58,3.6.58,2.08,0,4.15-.57,5.97-1.66l45.28-24.22c3.4-1.83,5.13-5.9,3.74-9.51-1.67-4.37-6.71-6.15-10.69-4.01l-38.65,20.68,6.8-27.2-3.58-3.05c-17.41-14.9-27.2-35.84-27.55-58.95-.61-39.9,30.15-74.67,70.02-79.16,32.51-3.67,63.11,11.98,77.94,39.84,5.57,10.47,8.06,22.16,7.19,33.83-.88,11.68-4.81,21.57-11.1,28.41-2.32,2.44-10.3,10-17.7,7.8-4.66-1.39-2.69-11.48-2.11-14.03,1.06-4.41,3.65-11.16,5.01-15.8,1.72-5.9,3.49-11.81,4.71-17.84,1.35-6.65,2.42-14.4-.87-20.67-4.44-8.49-15.21-10.42-23.13-5.57-8.31,5.08-13.63,14.29-18.17,22.6,1.55-11.99,1.27-22.22-3.69-28.53-1.12-1.43-2.44-2.61-3.91-3.52,0,0-3.22-1.99-7.79-2.29-5.61-.36-14.2,3.83-21.84,12.18-.84-1.14-4.83-6.27-11.8-7.17-3.31-.43-6.85.1-9.83,1.62-2.02,1.03-3.8,2.62-4.93,4.6-.86,1.51-1.92,4.1-.41,5.55.33.32.78.49,1.23.58,3.83.71,9.23-3.45,11.57,1.57,1.02,2.19.6,4.81.3,7.12-.52,4.02-1.53,7.97-2.53,11.89-1.43,5.61-2.95,11.19-4.32,16.82-2.97,12.23-3.23,16.37-4.29,23.33l-.81,4.51c-.9,4.96,2.11,9.78,6.94,11.16,5.29,1.51,10.8-1.62,12.18-6.95l1.09-4.2.48-2.19c1.46-6.66,1.77-8.02,3.17-13.49,7.07-27.63,12.88-39.5,17.14-45.86,0,0,2.12-2.98,4.59-2.98.24,0,.48.02.72.08,2.23.55,2.36,4.77,2.33,6.44-.03.95-.09,1.99-.19,3.13-.64,7.92-2.58,17.49-4.45,26.75-2.06,10.18-4.01,19.82-4.16,26.92-.03,1.61.27,3.21,1.01,4.65,1.9,3.7,5.79,5.62,9.64,5.15,3.65-.44,6.75-2.97,7.89-6.45,1.39-4.2,6.42-18.98,12.95-33.06,3.26-6.8,6.7-13.45,10.83-19.77,1.43-2.19,3.78-4.77,6.7-3.61,2.38.95,1.64,5.78,1.24,7.7-1.16,5.22-2.88,11.13-4.18,15.54-5.67,19.4-12.24,39.77-.83,48.48,9.24,7.06,22.65,1.38,29.81-2.64,15.36-8.6,25.06-25.67,26.65-46.81,1.09-14.53-2-29.09-8.92-42.09Z"/>
    <!-- "Mentioned" text -->
    <path d="M307.32,558.99v70.71h-15.14v-50.74l-21.35,31.76h-7.05l-21.45-31.8v50.79h-15.14v-70.71h19.03l21,31.76,21.11-31.76h18.98Z"/>
    <path d="M347.8,573.34c4.4,0,8.49.77,12.25,2.32,3.76,1.55,6.97,3.72,9.61,6.53,2.65,2.81,4.66,6.3,6.04,10.45,1.38,4.16,1.92,8.74,1.63,13.73h-44.92c.85,3.91,2.7,7.03,5.52,9.37,2.83,2.33,6.11,3.5,9.86,3.5,3.25,0,6.14-.83,8.65-2.49,2.51-1.66,4.46-3.99,5.84-6.98l12.18,5.82c-2.5,4.63-6.15,8.28-10.95,10.92-4.8,2.65-10.04,3.97-15.73,3.97s-10.45-1.14-14.96-3.4c-4.52-2.27-8.16-5.6-10.92-9.99-2.76-4.39-4.14-9.44-4.14-15.16s1.38-10.78,4.14-15.19c2.76-4.4,6.4-7.74,10.92-10.01,4.52-2.27,9.51-3.4,14.96-3.4ZM347.8,584.63c-3.94,0-7.31,1.16-10.08,3.48-2.78,2.32-4.54,5.45-5.3,9.39h30.82c-.79-3.94-2.56-7.08-5.32-9.39-2.76-2.32-6.13-3.48-10.11-3.48Z"/>
    <path d="M426.6,629.7v-27.76c0-5.42-.94-9.53-2.81-12.33-1.87-2.79-4.91-4.19-9.12-4.19-4.47,0-7.92,1.49-10.36,4.46-2.43,2.98-3.65,6.99-3.65,12.06v27.76h-14.2v-55.52h13.61l.59,8.14c3.35-5.98,9.61-8.97,18.79-8.97,7.56,0,13,2.43,16.32,7.3,3.32,4.87,4.98,11.97,4.98,21.3v27.76h-14.15Z"/>
    <path d="M454.16,561.65h14.2v12.52h13.71v11.09h-13.71v25.2c0,4.54,1.71,7.05,5.13,7.54,2.5.56,5.36.53,8.58-.1v11.69c-3.71.59-7.17.89-10.36.89-6.34,0-10.86-1.6-13.54-4.78-2.68-3.19-4.02-8.1-4.02-14.74v-25.69h-7.54v-11.09h7.54v-12.52Z"/>
    <path d="M498.69,566.88c-2.37,0-4.37-.82-6.02-2.47-1.64-1.64-2.46-3.65-2.46-6.01s.82-4.27,2.46-5.92c1.64-1.64,3.65-2.46,6.02-2.46s4.27.82,5.92,2.46c1.64,1.64,2.46,3.62,2.46,5.92s-.82,4.37-2.46,6.01-3.62,2.47-5.92,2.47ZM491.54,574.18h14.2v55.52h-14.2v-55.52Z"/>
    <path d="M544.25,630.49c-5.46,0-10.45-1.14-14.99-3.4-4.54-2.27-8.18-5.6-10.95-9.99-2.76-4.39-4.14-9.44-4.14-15.16s1.38-10.78,4.14-15.19c2.76-4.4,6.41-7.74,10.95-10.01,4.54-2.27,9.53-3.4,14.99-3.4s10.4,1.13,14.94,3.4c4.54,2.27,8.19,5.61,10.97,10.01,2.78,4.41,4.17,9.47,4.17,15.19s-1.39,10.77-4.17,15.16c-2.78,4.39-6.43,7.72-10.97,9.99-4.54,2.27-9.52,3.4-14.94,3.4ZM544.25,618.46c4.4,0,8.16-1.56,11.27-4.68,3.11-3.12,4.66-7.08,4.66-11.86s-1.55-8.73-4.63-11.83c-3.09-3.11-6.85-4.66-11.29-4.66s-8.24,1.55-11.32,4.63c-3.07,3.09-4.61,7.04-4.61,11.86s1.54,8.78,4.61,11.88c3.07,3.11,6.85,4.66,11.32,4.66Z"/>
    <path d="M623.49,629.7v-27.76c0-5.42-.94-9.53-2.81-12.33-1.87-2.79-4.91-4.19-9.12-4.19-4.47,0-7.92,1.49-10.36,4.46-2.43,2.98-3.65,6.99-3.65,12.06v27.76h-14.2v-55.52h13.61l.59,8.14c3.35-5.98,9.61-8.97,18.79-8.97,7.56,0,13,2.43,16.32,7.3,3.32,4.87,4.98,11.97,4.98,21.3v27.76h-14.15Z"/>
    <path d="M676.35,573.34c4.4,0,8.49.77,12.25,2.32,3.76,1.55,6.97,3.72,9.61,6.53,2.65,2.81,4.66,6.3,6.04,10.45,1.38,4.16,1.92,8.74,1.63,13.73h-44.92c.85,3.91,2.7,7.03,5.52,9.37,2.83,2.33,6.11,3.5,9.86,3.5,3.25,0,6.14-.83,8.65-2.49,2.51-1.66,4.46-3.99,5.84-6.98l12.18,5.82c-2.5,4.63-6.15,8.28-10.95,10.92-4.8,2.65-10.04,3.97-15.73,3.97s-10.45-1.14-14.96-3.4c-4.52-2.27-8.16-5.6-10.92-9.99-2.76-4.39-4.14-9.44-4.14-15.16s1.38-10.78,4.14-15.19c2.76-4.4,6.4-7.74,10.92-10.01,4.52-2.27,9.51-3.4,14.96-3.4ZM676.35,584.63c-3.94,0-7.31,1.16-10.08,3.48-2.78,2.32-4.54,5.45-5.3,9.39h30.82c-.79-3.94-2.56-7.08-5.32-9.39-2.76-2.32-6.13-3.48-10.11-3.48Z"/>
    <path d="M740.05,573.34c4.63,0,8.69.79,12.15,2.37,3.47,1.58,6.01,3.78,7.62,6.61v-28.35h14.2v75.74h-13.61l-.59-8.19c-3.03,5.98-9.62,8.98-19.77,8.98-3.65,0-7.08-.72-10.28-2.15-3.21-1.43-5.98-3.38-8.33-5.84-2.35-2.46-4.21-5.48-5.57-9.05-1.37-3.57-2.05-7.41-2.05-11.51s.68-7.95,2.05-11.51c1.36-3.57,3.22-6.59,5.57-9.07,2.35-2.48,5.13-4.44,8.33-5.87,3.2-1.43,6.63-2.14,10.28-2.14ZM743.9,618.46c4.44,0,8.2-1.56,11.29-4.68,3.09-3.12,4.64-7.07,4.64-11.83s-1.54-8.75-4.61-11.86c-3.07-3.11-6.85-4.66-11.32-4.66s-8.18,1.55-11.22,4.63c-3.04,3.09-4.56,7.05-4.56,11.88s1.53,8.71,4.59,11.83c3.06,3.12,6.79,4.68,11.19,4.68Z"/>
    <!-- Tagline text -->
    <path d="M225.97,648.76h2.32v6.42l6.19-6.42h2.61l-5.26,5.6,5.58,6.92h-2.72l-4.41-5.24-1.99,2.04v3.2h-2.32v-12.51Z"/>
    <path d="M242.57,648.76h1.91l6.9,8.47v-8.47h2.31v12.51h-1.91l-6.9-8.47v8.47h-2.31v-12.51Z"/>
    <path d="M259.73,655.02c0-3.7,2.86-6.44,6.74-6.44s6.74,2.72,6.74,6.44-2.86,6.43-6.74,6.43-6.74-2.73-6.74-6.43ZM270.86,655.02c0-2.56-1.88-4.4-4.4-4.4s-4.4,1.84-4.4,4.4,1.88,4.4,4.4,4.4,4.4-1.84,4.4-4.4Z"/>
    <path d="M277.65,648.76h2.41l3.11,9.51,3.24-9.51h2.15l3.16,9.56,3.2-9.56h2.22l-4.15,12.51h-2.47l-3.09-9.24-3.15,9.24h-2.49l-4.15-12.51Z"/>
    <path d="M310.17,648.76h2.41l3.11,9.51,3.24-9.51h2.15l3.16,9.56,3.2-9.56h2.22l-4.15,12.51h-2.47l-3.09-9.24-3.15,9.24h-2.49l-4.15-12.51Z"/>
    <path d="M343.91,655.92h-6.47v5.36h-2.33v-12.51h2.33v5.17h6.47v-5.17h2.33v12.51h-2.33v-5.36Z"/>
    <path d="M353.16,648.76h9.14v1.95h-6.81v3.25h6.04v1.91h-6.04v3.45h7.06v1.95h-9.39v-12.51Z"/>
    <path d="M368.7,648.76h1.91l6.9,8.47v-8.47h2.31v12.51h-1.91l-6.9-8.47v8.47h-2.31v-12.51Z"/>
    <path d="M397.79,650.73h-4.15v-1.97h10.62v1.97h-4.15v10.55h-2.32v-10.55Z"/>
    <path d="M418.38,655.92h-6.47v5.36h-2.33v-12.51h2.33v5.17h6.47v-5.17h2.33v12.51h-2.33v-5.36Z"/>
    <path d="M427.63,648.76h9.14v1.95h-6.81v3.25h6.04v1.91h-6.04v3.45h7.06v1.95h-9.39v-12.51Z"/>
    <path d="M450.48,648.76h2.41l3.11,9.51,3.24-9.51h2.15l3.16,9.56,3.2-9.56h2.22l-4.15,12.51h-2.47l-3.09-9.24-3.15,9.24h-2.49l-4.15-12.51Z"/>
    <path d="M474.41,655.02c0-3.7,2.86-6.44,6.74-6.44s6.74,2.72,6.74,6.44-2.86,6.43-6.74,6.43-6.74-2.73-6.74-6.43ZM485.54,655.02c0-2.56-1.88-4.4-4.4-4.4s-4.4,1.84-4.4,4.4,1.88,4.4,4.4,4.4,4.4-1.84,4.4-4.4Z"/>
    <path d="M493.92,648.76h5.13c3.34,0,5.35,1.68,5.35,4.45,0,1.91-.97,3.29-2.66,3.97l2.88,4.09h-2.5l-2.56-3.67c-.16.02-.32.02-.48.02h-2.82v3.65h-2.33v-12.51ZM498.96,655.72c2.04,0,3.09-.93,3.09-2.5s-1.06-2.49-3.09-2.49h-2.72v4.99h2.72Z"/>
    <path d="M510.55,648.76h2.33v10.55h6.54v1.97h-8.87v-12.51Z"/>
    <path d="M524.83,648.76h5.47c4.06,0,6.83,2.5,6.83,6.26s-2.77,6.26-6.83,6.26h-5.47v-12.51ZM530.19,659.31c2.79,0,4.6-1.7,4.6-4.29s-1.81-4.29-4.6-4.29h-3.04v8.58h3.04Z"/>
    <path d="M554.2,650.73h-4.15v-1.97h10.62v1.97h-4.15v10.55h-2.32v-10.55Z"/>
    <path d="M569.23,648.76h2.29l5.65,12.51h-2.43l-1.25-2.9h-6.26l-1.23,2.9h-2.4l5.63-12.51ZM572.7,656.56l-2.34-5.47-2.34,5.47h4.68Z"/>
    <path d="M582.33,648.76h2.33v10.55h6.54v1.97h-8.87v-12.51Z"/>
    <path d="M596.6,648.76h2.33v6.42l6.19-6.42h2.61l-5.26,5.6,5.58,6.92h-2.72l-4.41-5.24-1.98,2.04v3.2h-2.33v-12.51Z"/>
    <path d="M611.88,659.96l.8-1.81c1,.8,2.59,1.38,4.13,1.38,1.95,0,2.77-.7,2.77-1.63,0-2.7-7.44-.93-7.44-5.58,0-2.02,1.61-3.74,5.04-3.74,1.5,0,3.07.39,4.16,1.11l-.73,1.8c-1.13-.66-2.36-.98-3.45-.98-1.93,0-2.72.75-2.72,1.7,0,2.66,7.42.93,7.42,5.52,0,2-1.63,3.72-5.06,3.72-1.95,0-3.9-.61-4.93-1.5Z"/>
    <path d="M640.11,648.76h2.29l5.65,12.51h-2.43l-1.25-2.9h-6.26l-1.23,2.9h-2.4l5.63-12.51ZM643.58,656.56l-2.34-5.47-2.34,5.47h4.68Z"/>
    <path d="M653.21,648.76h5.86c3,0,4.61,1.27,4.61,3.25,0,1.29-.66,2.25-1.61,2.75,1.34.43,2.25,1.48,2.25,3.11,0,2.15-1.68,3.4-4.9,3.4h-6.22v-12.51ZM658.82,654.04c1.61,0,2.52-.57,2.52-1.72s-.91-1.73-2.52-1.73h-3.29v3.45h3.29ZM659.28,659.45c1.75,0,2.7-.55,2.7-1.81s-.95-1.8-2.7-1.8h-3.75v3.61h3.75Z"/>
    <path d="M669.48,655.02c0-3.7,2.86-6.44,6.74-6.44s6.74,2.72,6.74,6.44-2.86,6.43-6.74,6.43-6.74-2.73-6.74-6.43ZM680.62,655.02c0-2.56-1.88-4.4-4.4-4.4s-4.4,1.84-4.4,4.4,1.88,4.4,4.4,4.4,4.4-1.84,4.4-4.4Z"/>
    <path d="M688.89,655.83v-7.06h2.32v6.97c0,2.57,1.16,3.68,3.18,3.68s3.16-1.11,3.16-3.68v-6.97h2.29v7.06c0,3.65-2.06,5.63-5.47,5.63s-5.49-1.98-5.49-5.63Z"/>
    <path d="M708.97,650.73h-4.15v-1.97h10.62v1.97h-4.15v10.55h-2.32v-10.55Z"/>
    <path d="M732.34,656.88l-4.91-8.12h2.48l3.67,6.1,3.7-6.1h2.29l-4.9,8.12v4.4h-2.33v-4.4Z"/>
    <path d="M743.22,655.02c0-3.7,2.86-6.44,6.74-6.44s6.74,2.72,6.74,6.44-2.86,6.43-6.74,6.43-6.74-2.73-6.74-6.43ZM754.36,655.02c0-2.56-1.88-4.4-4.4-4.4s-4.4,1.84-4.4,4.4,1.88,4.4,4.4,4.4,4.4-1.84,4.4-4.4Z"/>
    <path d="M762.63,655.83v-7.06h2.32v6.97c0,2.57,1.16,3.68,3.18,3.68s3.16-1.11,3.16-3.68v-6.97h2.29v7.06c0,3.65-2.06,5.63-5.47,5.63s-5.49-1.98-5.49-5.63Z"/>
  </g>
</svg>
