<svg xmlns="http://www.w3.org/2000/svg" viewBox="0 0 1280 720" width="1280" height="720">
  <defs>
    <linearGradient id="bg" x1="0.5" y1="0" x2="0.5" y2="1">
      <stop offset="0%" stop-color="#0a1210"/>
      <stop offset="50%" stop-color="#0f1e1a"/>
      <stop offset="100%" stop-color="#0a1210"/>
    </linearGradient>
    <radialGradient id="glow" cx="50%" cy="50%" r="45%">
      <stop offset="0%" stop-color="#2dd4a8" stop-opacity="0.04"/>
      <stop offset="100%" stop-color="#2dd4a8" stop-opacity="0"/>
    </radialGradient>
  </defs>

  <rect width="1280" height="720" fill="url(#bg)"/>
  <ellipse cx="640" cy="360" rx="500" ry="300" fill="url(#glow)"/>

  <!-- === STYLIZED GLOBE (centered, fills height) === -->
  <g transform="translate(640, 360)" stroke="#2dd4a8" fill="none" opacity="0.12">
    <!-- Outer circle -->
    <circle cx="0" cy="0" r="380" stroke-width="0.8"/>
    <!-- Longitude lines (vertical ellipses) -->
    <ellipse cx="0" cy="0" rx="380" ry="380" stroke-width="0.5"/>
    <ellipse cx="0" cy="0" rx="280" ry="380" stroke-width="0.5"/>
    <ellipse cx="0" cy="0" rx="160" ry="380" stroke-width="0.5"/>
    <ellipse cx="0" cy="0" rx="50" ry="380" stroke-width="0.5"/>
    <!-- Latitude lines (horizontal ellipses) -->
    <ellipse cx="0" cy="0" rx="380" ry="50" stroke-width="0.5"/>
    <ellipse cx="0" cy="0" rx="380" ry="160" stroke-width="0.5"/>
    <ellipse cx="0" cy="0" rx="380" ry="280" stroke-width="0.5"/>
    <!-- Equator (slightly brighter) -->
    <ellipse cx="0" cy="0" rx="380" ry="0.5" stroke-width="0.8" opacity="1.5"/>
    <!-- Prime meridian -->
    <line x1="0" y1="-380" x2="0" y2="380" stroke-width="0.8" opacity="1.5"/>
  </g>

  <!-- === CONNECTION LINES === -->
  <g stroke="#c0e8e0" stroke-width="0.6" opacity="0.25" fill="none">
    <line x1="420" y1="310" x2="700" y2="390"/>
    <line x1="700" y1="390" x2="900" y2="280"/>
    <line x1="420" y1="310" x2="900" y2="280"/>
    <line x1="420" y1="310" x2="190" y2="250"/>
    <line x1="420" y1="310" x2="240" y2="450"/>
    <line x1="420" y1="310" x2="540" y2="195"/>
    <line x1="700" y1="390" x2="540" y2="510"/>
    <line x1="700" y1="390" x2="860" y2="490"/>
    <line x1="700" y1="390" x2="540" y2="195"/>
    <line x1="900" y1="280" x2="1070" y2="350"/>
    <line x1="900" y1="280" x2="1060" y2="205"/>
    <line x1="900" y1="280" x2="860" y2="490"/>
    <line x1="190" y1="250" x2="90" y2="190"/>
    <line x1="190" y1="250" x2="110" y2="380"/>
    <line x1="240" y1="450" x2="110" y2="380"/>
    <line x1="240" y1="450" x2="140" y2="545"/>
    <line x1="240" y1="450" x2="540" y2="510"/>
    <line x1="540" y1="195" x2="390" y2="170"/>
    <line x1="540" y1="195" x2="700" y2="170"/>
    <line x1="1060" y1="205" x2="1185" y2="240"/>
    <line x1="1060" y1="205" x2="700" y2="170"/>
    <line x1="1070" y1="350" x2="1185" y2="240"/>
    <line x1="1070" y1="350" x2="1165" y2="470"/>
    <line x1="860" y1="490" x2="1165" y2="470"/>
    <line x1="860" y1="490" x2="750" y2="565"/>
    <line x1="540" y1="510" x2="750" y2="565"/>
    <line x1="540" y1="510" x2="390" y2="565"/>
    <line x1="140" y1="545" x2="390" y2="565"/>
  </g>

  <g stroke="#c0e8e0" stroke-width="0.3" opacity="0.12" fill="none">
    <line x1="90" y1="190" x2="390" y2="170"/>
    <line x1="110" y1="380" x2="140" y2="545"/>
    <line x1="1185" y1="240" x2="1165" y2="470"/>
    <line x1="390" y1="170" x2="700" y2="170"/>
    <line x1="390" y1="565" x2="750" y2="565"/>
    <line x1="190" y1="250" x2="540" y2="195"/>
    <line x1="1070" y1="350" x2="860" y2="490"/>
  </g>

  <!-- === INTERSECTION DOTS === -->
  <g fill="#c0e8e0" opacity="0.28">
    <circle cx="560" cy="350" r="2.5"/>
    <circle cx="800" cy="335" r="2.5"/>
    <circle cx="660" cy="295" r="2"/>
    <circle cx="305" cy="280" r="2"/>
    <circle cx="330" cy="380" r="2"/>
    <circle cx="480" cy="253" r="2"/>
    <circle cx="780" cy="440" r="2"/>
    <circle cx="985" cy="315" r="2"/>
    <circle cx="980" cy="243" r="2"/>
    <circle cx="620" cy="450" r="1.8"/>
    <circle cx="775" cy="340" r="1.8"/>
    <circle cx="145" cy="220" r="1.5"/>
    <circle cx="150" cy="315" r="1.5"/>
    <circle cx="190" cy="498" r="1.5"/>
    <circle cx="465" cy="183" r="1.5"/>
    <circle cx="620" cy="183" r="1.5"/>
    <circle cx="880" cy="193" r="1.5"/>
    <circle cx="1128" cy="295" r="1.5"/>
    <circle cx="1123" cy="223" r="1.5"/>
    <circle cx="1118" cy="410" r="1.5"/>
    <circle cx="645" cy="538" r="1.5"/>
    <circle cx="805" cy="528" r="1.5"/>
    <circle cx="465" cy="538" r="1.5"/>
    <circle cx="265" cy="555" r="1.5"/>
    <circle cx="1013" cy="478" r="1.5"/>
    <circle cx="340" cy="508" r="1.5"/>
  </g>

  <!-- === THREE HERO NODES (largest) === -->

  <!-- Hero 1: left-center -->
  <g transform="translate(420, 310)" opacity="0.9">
    <rect x="-34" y="-20" width="68" height="46" rx="4" fill="#0f1e1a" stroke="#2dd4a8" stroke-width="1.3"/>
    <rect x="-28" y="-14" width="56" height="34" rx="2" fill="#2dd4a8" opacity="0.12"/>
    <line x1="0" y1="26" x2="0" y2="35" stroke="#2dd4a8" stroke-width="1.1"/>
    <line x1="-12" y1="35" x2="12" y2="35" stroke="#2dd4a8" stroke-width="1.1"/>
    <circle cx="0" cy="46" r="8.5" fill="none" stroke="#2dd4a8" stroke-width="1.3"/>
    <path d="M-14 64 Q-14 53, 0 53 Q14 53, 14 64" fill="none" stroke="#2dd4a8" stroke-width="1.3"/>
  </g>

  <!-- Hero 2: right-center -->
  <g transform="translate(900, 280)" opacity="0.85">
    <rect x="-30" y="-18" width="60" height="42" rx="4" fill="#0f1e1a" stroke="#2dd4a8" stroke-width="1.2"/>
    <rect x="-25" y="-13" width="50" height="30" rx="2" fill="#2dd4a8" opacity="0.11"/>
    <line x1="0" y1="24" x2="0" y2="32" stroke="#2dd4a8" stroke-width="1"/>
    <line x1="-10" y1="32" x2="10" y2="32" stroke="#2dd4a8" stroke-width="1"/>
    <circle cx="0" cy="42" r="8" fill="none" stroke="#2dd4a8" stroke-width="1.2"/>
    <path d="M-13 58 Q-13 48, 0 48 Q13 48, 13 58" fill="none" stroke="#2dd4a8" stroke-width="1.2"/>
  </g>

  <!-- Hero 3: lower-center -->
  <g transform="translate(700, 390)" opacity="0.8">
    <rect x="-28" y="-16" width="56" height="38" rx="3" fill="#0f1e1a" stroke="#2dd4a8" stroke-width="1.1"/>
    <rect x="-23" y="-11" width="46" height="27" rx="2" fill="#2dd4a8" opacity="0.11"/>
    <line x1="0" y1="22" x2="0" y2="30" stroke="#2dd4a8" stroke-width="0.9"/>
    <line x1="-9" y1="30" x2="9" y2="30" stroke="#2dd4a8" stroke-width="0.9"/>
    <circle cx="0" cy="40" r="7.5" fill="none" stroke="#2dd4a8" stroke-width="1.1"/>
    <path d="M-12 54 Q-12 45, 0 45 Q12 45, 12 54" fill="none" stroke="#2dd4a8" stroke-width="1.1"/>
  </g>

  <!-- === MID-LAYER NODES === -->

  <g transform="translate(190, 250)" opacity="0.5">
    <rect x="-20" y="-11" width="40" height="28" rx="3" fill="#0f1e1a" stroke="#2dd4a8" stroke-width="0.7"/>
    <rect x="-15" y="-7" width="30" height="19" rx="1" fill="#2dd4a8" opacity="0.09"/>
    <line x1="0" y1="17" x2="0" y2="22" stroke="#2dd4a8" stroke-width="0.6"/>
    <line x1="-7" y1="22" x2="7" y2="22" stroke="#2dd4a8" stroke-width="0.6"/>
    <circle cx="0" cy="29" r="5" fill="none" stroke="#2dd4a8" stroke-width="0.7"/>
    <path d="M-8 40 Q-8 33, 0 33 Q8 33, 8 40" fill="none" stroke="#2dd4a8" stroke-width="0.7"/>
  </g>

  <g transform="translate(240, 450)" opacity="0.45">
    <rect x="-18" y="-10" width="36" height="26" rx="3" fill="#0f1e1a" stroke="#2dd4a8" stroke-width="0.7"/>
    <rect x="-14" y="-7" width="28" height="17" rx="1" fill="#2dd4a8" opacity="0.08"/>
    <line x1="0" y1="16" x2="0" y2="20" stroke="#2dd4a8" stroke-width="0.5"/>
    <line x1="-6" y1="20" x2="6" y2="20" stroke="#2dd4a8" stroke-width="0.5"/>
    <circle cx="0" cy="27" r="4.5" fill="none" stroke="#2dd4a8" stroke-width="0.7"/>
    <path d="M-7 37 Q-7 31, 0 31 Q7 31, 7 37" fill="none" stroke="#2dd4a8" stroke-width="0.7"/>
  </g>

  <g transform="translate(540, 195)" opacity="0.5">
    <rect x="-20" y="-11" width="40" height="28" rx="3" fill="#0f1e1a" stroke="#2dd4a8" stroke-width="0.7"/>
    <rect x="-15" y="-7" width="30" height="19" rx="1" fill="#2dd4a8" opacity="0.09"/>
    <line x1="0" y1="17" x2="0" y2="22" stroke="#2dd4a8" stroke-width="0.6"/>
    <line x1="-7" y1="22" x2="7" y2="22" stroke="#2dd4a8" stroke-width="0.6"/>
    <circle cx="0" cy="29" r="5" fill="none" stroke="#2dd4a8" stroke-width="0.7"/>
    <path d="M-8 40 Q-8 33, 0 33 Q8 33, 8 40" fill="none" stroke="#2dd4a8" stroke-width="0.7"/>
  </g>

  <g transform="translate(540, 510)" opacity="0.45">
    <rect x="-18" y="-10" width="36" height="26" rx="3" fill="#0f1e1a" stroke="#2dd4a8" stroke-width="0.7"/>
    <rect x="-14" y="-7" width="28" height="17" rx="1" fill="#2dd4a8" opacity="0.08"/>
    <line x1="0" y1="16" x2="0" y2="20" stroke="#2dd4a8" stroke-width="0.5"/>
    <line x1="-6" y1="20" x2="6" y2="20" stroke="#2dd4a8" stroke-width="0.5"/>
    <circle cx="0" cy="27" r="4.5" fill="none" stroke="#2dd4a8" stroke-width="0.7"/>
    <path d="M-7 37 Q-7 31, 0 31 Q7 31, 7 37" fill="none" stroke="#2dd4a8" stroke-width="0.7"/>
  </g>

  <g transform="translate(860, 490)" opacity="0.45">
    <rect x="-18" y="-10" width="36" height="26" rx="3" fill="#0f1e1a" stroke="#2dd4a8" stroke-width="0.7"/>
    <rect x="-14" y="-7" width="28" height="17" rx="1" fill="#2dd4a8" opacity="0.08"/>
    <line x1="0" y1="16" x2="0" y2="20" stroke="#2dd4a8" stroke-width="0.5"/>
    <line x1="-6" y1="20" x2="6" y2="20" stroke="#2dd4a8" stroke-width="0.5"/>
    <circle cx="0" cy="27" r="4.5" fill="none" stroke="#2dd4a8" stroke-width="0.7"/>
    <path d="M-7 37 Q-7 31, 0 31 Q7 31, 7 37" fill="none" stroke="#2dd4a8" stroke-width="0.7"/>
  </g>

  <g transform="translate(1070, 350)" opacity="0.45">
    <rect x="-18" y="-10" width="36" height="26" rx="3" fill="#0f1e1a" stroke="#2dd4a8" stroke-width="0.7"/>
    <rect x="-14" y="-7" width="28" height="17" rx="1" fill="#2dd4a8" opacity="0.08"/>
    <line x1="0" y1="16" x2="0" y2="20" stroke="#2dd4a8" stroke-width="0.5"/>
    <line x1="-6" y1="20" x2="6" y2="20" stroke="#2dd4a8" stroke-width="0.5"/>
    <circle cx="0" cy="27" r="4.5" fill="none" stroke="#2dd4a8" stroke-width="0.7"/>
    <path d="M-7 37 Q-7 31, 0 31 Q7 31, 7 37" fill="none" stroke="#2dd4a8" stroke-width="0.7"/>
  </g>

  <g transform="translate(1060, 205)" opacity="0.45">
    <rect x="-18" y="-10" width="36" height="26" rx="3" fill="#0f1e1a" stroke="#2dd4a8" stroke-width="0.6"/>
    <rect x="-14" y="-7" width="28" height="17" rx="1" fill="#2dd4a8" opacity="0.08"/>
    <line x1="0" y1="16" x2="0" y2="20" stroke="#2dd4a8" stroke-width="0.5"/>
    <line x1="-6" y1="20" x2="6" y2="20" stroke="#2dd4a8" stroke-width="0.5"/>
    <circle cx="0" cy="27" r="4.5" fill="none" stroke="#2dd4a8" stroke-width="0.6"/>
    <path d="M-7 37 Q-7 31, 0 31 Q7 31, 7 37" fill="none" stroke="#2dd4a8" stroke-width="0.6"/>
  </g>

  <!-- === OUTER NODES === -->

  <g transform="translate(90, 190)" opacity="0.25">
    <rect x="-14" y="-8" width="28" height="20" rx="2" fill="#0f1e1a" stroke="#2dd4a8" stroke-width="0.5"/>
    <rect x="-10" y="-5" width="20" height="13" rx="1" fill="#2dd4a8" opacity="0.07"/>
    <circle cx="0" cy="17" r="3.5" fill="none" stroke="#2dd4a8" stroke-width="0.5"/>
    <path d="M-5 25 Q-5 21, 0 21 Q5 21, 5 25" fill="none" stroke="#2dd4a8" stroke-width="0.5"/>
  </g>

  <g transform="translate(110, 380)" opacity="0.25">
    <rect x="-14" y="-8" width="28" height="20" rx="2" fill="#0f1e1a" stroke="#2dd4a8" stroke-width="0.5"/>
    <rect x="-10" y="-5" width="20" height="13" rx="1" fill="#2dd4a8" opacity="0.07"/>
    <circle cx="0" cy="17" r="3.5" fill="none" stroke="#2dd4a8" stroke-width="0.5"/>
    <path d="M-5 25 Q-5 21, 0 21 Q5 21, 5 25" fill="none" stroke="#2dd4a8" stroke-width="0.5"/>
  </g>

  <g transform="translate(140, 545)" opacity="0.22">
    <rect x="-14" y="-8" width="28" height="20" rx="2" fill="#0f1e1a" stroke="#2dd4a8" stroke-width="0.5"/>
    <rect x="-10" y="-5" width="20" height="13" rx="1" fill="#2dd4a8" opacity="0.06"/>
    <circle cx="0" cy="17" r="3.5" fill="none" stroke="#2dd4a8" stroke-width="0.5"/>
    <path d="M-5 25 Q-5 21, 0 21 Q5 21, 5 25" fill="none" stroke="#2dd4a8" stroke-width="0.5"/>
  </g>

  <g transform="translate(390, 170)" opacity="0.28">
    <rect x="-14" y="-8" width="28" height="20" rx="2" fill="#0f1e1a" stroke="#2dd4a8" stroke-width="0.5"/>
    <rect x="-10" y="-5" width="20" height="13" rx="1" fill="#2dd4a8" opacity="0.07"/>
    <circle cx="0" cy="17" r="3.5" fill="none" stroke="#2dd4a8" stroke-width="0.5"/>
    <path d="M-5 25 Q-5 21, 0 21 Q5 21, 5 25" fill="none" stroke="#2dd4a8" stroke-width="0.5"/>
  </g>

  <g transform="translate(700, 170)" opacity="0.28">
    <rect x="-14" y="-8" width="28" height="20" rx="2" fill="#0f1e1a" stroke="#2dd4a8" stroke-width="0.5"/>
    <rect x="-10" y="-5" width="20" height="13" rx="1" fill="#2dd4a8" opacity="0.07"/>
    <circle cx="0" cy="17" r="3.5" fill="none" stroke="#2dd4a8" stroke-width="0.5"/>
    <path d="M-5 25 Q-5 21, 0 21 Q5 21, 5 25" fill="none" stroke="#2dd4a8" stroke-width="0.5"/>
  </g>

  <g transform="translate(1185, 240)" opacity="0.22">
    <rect x="-14" y="-8" width="28" height="20" rx="2" fill="#0f1e1a" stroke="#2dd4a8" stroke-width="0.5"/>
    <rect x="-10" y="-5" width="20" height="13" rx="1" fill="#2dd4a8" opacity="0.06"/>
    <circle cx="0" cy="17" r="3.5" fill="none" stroke="#2dd4a8" stroke-width="0.5"/>
    <path d="M-5 25 Q-5 21, 0 21 Q5 21, 5 25" fill="none" stroke="#2dd4a8" stroke-width="0.5"/>
  </g>

  <g transform="translate(1165, 470)" opacity="0.22">
    <rect x="-14" y="-8" width="28" height="20" rx="2" fill="#0f1e1a" stroke="#2dd4a8" stroke-width="0.5"/>
    <rect x="-10" y="-5" width="20" height="13" rx="1" fill="#2dd4a8" opacity="0.06"/>
    <circle cx="0" cy="17" r="3.5" fill="none" stroke="#2dd4a8" stroke-width="0.5"/>
    <path d="M-5 25 Q-5 21, 0 21 Q5 21, 5 25" fill="none" stroke="#2dd4a8" stroke-width="0.5"/>
  </g>

  <g transform="translate(390, 565)" opacity="0.22">
    <rect x="-14" y="-8" width="28" height="20" rx="2" fill="#0f1e1a" stroke="#2dd4a8" stroke-width="0.5"/>
    <rect x="-10" y="-5" width="20" height="13" rx="1" fill="#2dd4a8" opacity="0.06"/>
    <circle cx="0" cy="17" r="3.5" fill="none" stroke="#2dd4a8" stroke-width="0.5"/>
    <path d="M-5 25 Q-5 21, 0 21 Q5 21, 5 25" fill="none" stroke="#2dd4a8" stroke-width="0.5"/>
  </g>

  <g transform="translate(750, 565)" opacity="0.22">
    <rect x="-14" y="-8" width="28" height="20" rx="2" fill="#0f1e1a" stroke="#2dd4a8" stroke-width="0.5"/>
    <rect x="-10" y="-5" width="20" height="13" rx="1" fill="#2dd4a8" opacity="0.06"/>
    <circle cx="0" cy="17" r="3.5" fill="none" stroke="#2dd4a8" stroke-width="0.5"/>
    <path d="M-5 25 Q-5 21, 0 21 Q5 21, 5 25" fill="none" stroke="#2dd4a8" stroke-width="0.5"/>
  </g>
</svg>
